# xmcd
#
# Track frame offsets:
#	150
#	14259
#	33084
#	46727
#	60600
#	74152
#	93918
#	114550
#	139822
#	154518
#	168374
#	184214
#	196184
#
# Disc length: 2726 seconds
#
# Revision: 0
# Processed by: cddbd v1.5.2PL0 Copyright (c) Steve Scherf et al.
# Submitted via: dBpowerAMP V4.0
#
DISCID=a80aa40d
DTITLE=Charlie Louvin - Live at Shake It Records
DYEAR=1900
DGENRE=Country
TTITLE0=Wabash Cannonball
TTITLE1=You're Running Wild
TTITLE2=The Christian Life
TTITLE3=Will You Visit Me on Sundays
TTITLE4=Cash on the Barrelhead
TTITLE5=My Long Journey Home
TTITLE6=My Baby's Gone
TTITLE7=Mama's Angels
TTITLE8=Praying
TTITLE9=Waiting for a Train
TTITLE10=The Hand that Rocks the Cradle
TTITLE11=See the Big Man Cry
TTITLE12=Charlie's Wish
EXTD=
EXTT0=
EXTT1=
EXTT2=
EXTT3=
EXTT4=
EXTT5=
EXTT6=
EXTT7=
EXTT8=
EXTT9=
EXTT10=
EXTT11=
EXTT12=
PLAYORDER=
